<svg width="657.9px" height="122px" xmlns="http://www.w3.org/2000/svg" viewBox="-78.96251220703124 13.9893798828125 657.9250244140625 122.021240234375" style="background: none" preserveAspectRatio="xMidYMid"><defs><filter id="editing-extrusion" x="-100%" y="-100%" width="300%" height="300%"><feFlood result="color1" flood-color="#d88c51"></feFlood><feConvolveMatrix order="8,8" divisor="1" kernelMatrix="1 0 0 0 0 0 0 0 0 1 0 0 0 0 0 0 0 0 1 0 0 0 0 0 0 0 0 1 0 0 0 0 0 0 0 0 1 0 0 0 0 0 0 0 0 1 0 0 0 0 0 0 0 0 1 0 0 0 0 0 0 0 0 1" in="SourceAlpha" result="extrude"></feConvolveMatrix><feComposite in="color1" in2="extrude" result="comp-extrude" operator="in"></feComposite><feOffset dx="4" dy="4" in="comp-extrude" result="offset-extrude"></feOffset><feMerge><feMergeNode in="offset-extrude"></feMergeNode><feMergeNode in="SourceGraphic"></feMergeNode></feMerge></filter></defs><g filter="url(#editing-extrusion)"><g transform="matrix(1.3,0,0,1.1,-36.7,111.9)"><path d="M 15.1 -8 L 1.2 -8 L 9.3 -50.3 L 23.4 -50.3 L 15.1 -8 Z M 70.9 -6.7 L 70.9 -6.7 L 70.9 -6.7 Q 63.1 -6.7 63.1 -12.8 L 63.1 -12.8 L 63.1 -12.8 Q 63.1 -15.4 64.2 -20.5 L 64.2 -20.5 L 64.2 -20.5 Q 65.4 -25.6 65.7 -27.6 L 65.7 -27.6 L 65.7 -27.6 Q 66.6 -32.3 66.6 -33.7 L 66.6 -33.7 L 66.6 -33.7 Q 66.6 -37 64.2 -37 L 64.2 -37 L 64.2 -37 Q 62.6 -37 61.1 -34.8 L 61.1 -34.8 L 61.1 -34.8 Q 59.5 -32.6 58.8 -28.2 L 58.8 -28.2 L 54.9 -8 L 42.4 -6.7 L 45.8 -24.1 L 45.8 -24.1 Q 46.4 -27 46.9 -30.3 L 46.9 -30.3 L 46.9 -30.3 Q 47.4 -33.6 47.4 -34.1 L 47.4 -34.1 L 47.4 -34.1 Q 47.4 -37 45.3 -37 L 45.3 -37 L 45.3 -37 Q 43.8 -37 42.2 -34.8 L 42.2 -34.8 L 42.2 -34.8 Q 40.6 -32.7 39.7 -28.2 L 39.7 -28.2 L 35.8 -8 L 23.2 -6.7 L 29.9 -40.7 L 40.3 -41.9 L 39.2 -35.5 L 39.2 -35.5 Q 40.9 -38.9 44 -40.4 L 44 -40.4 L 44 -40.4 Q 47.1 -41.9 51.9 -41.9 L 51.9 -41.9 L 51.9 -41.9 Q 54.6 -41.9 56.4 -40.6 L 56.4 -40.6 L 56.4 -40.6 Q 58.2 -39.2 58.8 -37.1 L 58.8 -37.1 L 58.8 -37.1 Q 59.9 -39.3 62.6 -40.6 L 62.6 -40.6 L 62.6 -40.6 Q 65.4 -41.9 68.8 -41.9 L 68.8 -41.9 L 68.8 -41.9 Q 72.3 -41.9 74 -41.2 L 74 -41.2 L 74 -41.2 Q 75.7 -40.5 76.7 -39.2 L 76.7 -39.2 L 76.7 -39.2 Q 78.4 -37 78.4 -32.9 L 78.4 -32.9 L 78.4 -32.9 Q 78.4 -28.9 76.7 -20.5 L 76.7 -20.5 L 76.7 -20.5 Q 75.8 -16.4 75.8 -14.9 L 75.8 -14.9 L 75.8 -14.9 Q 75.8 -13.4 76.7 -12.5 L 76.7 -12.5 L 76.7 -12.5 Q 77.5 -11.6 78.8 -11.5 L 78.8 -11.5 L 78.8 -11.5 Q 78.2 -9.3 76 -8 L 76 -8 L 76 -8 Q 73.7 -6.7 70.9 -6.7 Z M 86.5 -9.9 L 86.5 -9.9 L 86.5 -9.9 Q 85 -11.6 84.3 -14.2 L 84.3 -14.2 L 84.3 -14.2 Q 83.7 -16.8 83.7 -21.1 L 83.7 -21.1 L 83.7 -21.1 Q 83.7 -25.4 85.1 -29.3 L 85.1 -29.3 L 85.1 -29.3 Q 86.6 -33.2 89.3 -36 L 89.3 -36 L 89.3 -36 Q 94.8 -41.9 103.9 -41.9 L 103.9 -41.9 L 103.9 -41.9 Q 107.2 -41.9 109.5 -40.8 L 109.5 -40.8 L 120.5 -41.9 L 115.7 -17 L 115.7 -17 Q 115.5 -16.2 115.5 -14.8 L 115.5 -14.8 L 115.5 -14.8 Q 115.5 -13.4 116.4 -12.5 L 116.4 -12.5 L 116.4 -12.5 Q 117.3 -11.6 118.5 -11.5 L 118.5 -11.5 L 118.5 -11.5 Q 117.9 -9.3 115.6 -8 L 115.6 -8 L 115.6 -8 Q 113.2 -6.7 110.6 -6.7 L 110.6 -6.7 L 110.6 -6.7 Q 108 -6.7 106.2 -7.7 L 106.2 -7.7 L 106.2 -7.7 Q 104.5 -8.7 104 -10.4 L 104 -10.4 L 104 -10.4 Q 102.9 -8.8 100.8 -7.8 L 100.8 -7.8 L 100.8 -7.8 Q 98.6 -6.7 95.7 -6.7 L 95.7 -6.7 L 95.7 -6.7 Q 92.8 -6.7 90.4 -7.5 L 90.4 -7.5 L 90.4 -7.5 Q 88 -8.3 86.5 -9.9 Z M 100 -35.9 L 100 -35.9 L 100 -35.9 Q 99.3 -34.8 98.6 -32.8 L 98.6 -32.8 L 98.6 -32.8 Q 98 -30.9 96.9 -25.6 L 96.9 -25.6 L 96.9 -25.6 Q 95.9 -20.4 95.9 -16.7 L 95.9 -16.7 L 95.9 -16.7 Q 95.9 -13 96.5 -11.9 L 96.5 -11.9 L 96.5 -11.9 Q 97 -10.8 98.1 -10.8 L 98.1 -10.8 L 98.1 -10.8 Q 100.1 -10.8 101.6 -12.8 L 101.6 -12.8 L 101.6 -12.8 Q 103.1 -14.7 103.7 -18.2 L 103.7 -18.2 L 107.1 -36.9 L 107.1 -36.9 Q 105.7 -38.1 104.2 -38.1 L 104.2 -38.1 L 104.2 -38.1 Q 102.6 -38.1 101.7 -37.6 L 101.7 -37.6 L 101.7 -37.6 Q 100.8 -37.1 100 -35.9 Z M 128.2 -34.8 L 128.2 -34.8 L 128.2 -34.8 Q 130.4 -37.8 133.7 -39.9 L 133.7 -39.9 L 133.7 -39.9 Q 137 -41.9 141 -41.9 L 141 -41.9 L 141 -41.9 Q 145 -41.9 147 -40.7 L 147 -40.7 L 159.5 -41.9 L 155.2 -17.4 L 155.2 -17.4 Q 152.9 -4.8 148.2 0.1 L 148.2 0.1 L 148.2 0.1 Q 143.6 4.8 134.8 4.8 L 134.8 4.8 L 134.8 4.8 Q 128.1 4.8 124.2 2.7 L 124.2 2.7 L 124.2 2.7 Q 120.4 0.6 120.4 -3 L 120.4 -3 L 120.4 -3 Q 120.4 -5.6 122.4 -7.1 L 122.4 -7.1 L 122.4 -7.1 Q 124.4 -8.6 127.4 -8.6 L 127.4 -8.6 L 127.4 -8.6 Q 130.1 -8.6 132.2 -7.4 L 132.2 -7.4 L 132.2 -7.4 Q 133.4 -6.7 134 -5.8 L 134 -5.8 L 134 -5.8 Q 132.5 -4.6 132.5 -2.4 L 132.5 -2.4 L 132.5 -2.4 Q 132.5 0.3 135.1 0.3 L 135.1 0.3 L 135.1 0.3 Q 139.3 0.3 141.8 -9.8 L 141.8 -9.8 L 141.8 -9.8 Q 142.5 -12.6 143.1 -15.3 L 143.1 -15.3 L 143.1 -15.3 Q 140.2 -11.8 133.6 -11.8 L 133.6 -11.8 L 133.6 -11.8 Q 129.1 -11.8 126.5 -14 L 126.5 -14 L 126.5 -14 Q 123.9 -16.1 123.9 -21.3 L 123.9 -21.3 L 123.9 -21.3 Q 123.9 -24.5 124.9 -28.1 L 124.9 -28.1 L 124.9 -28.1 Q 126 -31.7 128.2 -34.8 Z M 136.5 -21.1 L 136.5 -21.1 L 136.5 -21.1 Q 136.5 -16.7 138.8 -16.7 L 138.8 -16.7 L 138.8 -16.7 Q 140.3 -16.7 141.8 -18.4 L 141.8 -18.4 L 141.8 -18.4 Q 142.9 -19.7 143.4 -21.7 L 143.4 -21.7 L 146.6 -38.2 L 146.6 -38.2 Q 146.3 -38.2 146 -38.4 L 146 -38.4 L 146 -38.4 Q 145.4 -38.6 144.5 -38.6 L 144.5 -38.6 L 144.5 -38.6 Q 140.6 -38.6 138.3 -32.2 L 138.3 -32.2 L 138.3 -32.2 Q 136.5 -27.2 136.5 -21.1 Z M 187.9 -18.8 L 187.9 -18.8 L 187.9 -18.8 Q 189.5 -17.7 189.5 -15.3 L 189.5 -15.3 L 189.5 -15.3 Q 189.5 -12.9 188.3 -11.4 L 188.3 -11.4 L 188.3 -11.4 Q 187.1 -9.9 185.1 -8.8 L 185.1 -8.8 L 185.1 -8.8 Q 181 -6.7 176.6 -6.7 L 176.6 -6.7 L 176.6 -6.7 Q 172.2 -6.7 169.6 -7.7 L 169.6 -7.7 L 169.6 -7.7 Q 167 -8.7 165.3 -10.4 L 165.3 -10.4 L 165.3 -10.4 Q 161.9 -13.8 161.9 -20 L 161.9 -20 L 161.9 -20 Q 161.9 -29.7 167.1 -35.6 L 167.1 -35.6 L 167.1 -35.6 Q 172.8 -41.9 182.5 -41.9 L 182.5 -41.9 L 182.5 -41.9 Q 188.6 -41.9 191.6 -39.4 L 191.6 -39.4 L 191.6 -39.4 Q 193.9 -37.5 193.9 -34.3 L 193.9 -34.3 L 193.9 -34.3 Q 193.9 -23.1 174.4 -23.1 L 174.4 -23.1 L 174.4 -23.1 Q 174.2 -21.4 174.2 -20 L 174.2 -20 L 174.2 -20 Q 174.2 -17 175.5 -15.9 L 175.5 -15.9 L 175.5 -15.9 Q 176.8 -14.8 179.2 -14.8 L 179.2 -14.8 L 179.2 -14.8 Q 181.6 -14.8 184.2 -15.9 L 184.2 -15.9 L 184.2 -15.9 Q 186.8 -17 187.9 -18.8 Z M 174.9 -25.8 L 174.9 -25.8 L 174.9 -25.8 Q 179.4 -25.8 182 -28.6 L 182 -28.6 L 182 -28.6 Q 184.7 -31.3 184.7 -35.6 L 184.7 -35.6 L 184.7 -35.6 Q 184.7 -37.1 184.1 -37.9 L 184.1 -37.9 L 184.1 -37.9 Q 183.6 -38.7 182.5 -38.7 L 182.5 -38.7 L 182.5 -38.7 Q 181.4 -38.7 180.5 -38.3 L 180.5 -38.3 L 180.5 -38.3 Q 179.5 -37.8 178.6 -36.4 L 178.6 -36.4 L 178.6 -36.4 Q 176.2 -33.2 174.9 -25.8 Z M 215.2 -30.5 L 215.2 -30.5 L 215.2 -30.5 Q 216.1 -32.8 216.1 -34.9 L 216.1 -34.9 L 216.1 -34.9 Q 216.1 -38.7 213 -38.7 L 213 -38.7 L 213 -38.7 Q 211.4 -38.7 210.1 -37.2 L 210.1 -37.2 L 210.1 -37.2 Q 208.8 -35.8 208.8 -34 L 208.8 -34 L 208.8 -34 Q 208.8 -32.7 209.8 -31.7 L 209.8 -31.7 L 209.8 -31.7 Q 211.3 -30.3 215.1 -28 L 215.1 -28 L 215.1 -28 Q 218.8 -25.7 220.3 -23.8 L 220.3 -23.8 L 220.3 -23.8 Q 221.7 -21.9 221.7 -19.3 L 221.7 -19.3 L 221.7 -19.3 Q 221.7 -16.7 220.5 -14.4 L 220.5 -14.4 L 220.5 -14.4 Q 219.2 -12 217 -10.3 L 217 -10.3 L 217 -10.3 Q 212.2 -6.7 204.5 -6.7 L 204.5 -6.7 L 204.5 -6.7 Q 200.3 -6.7 197.1 -8.9 L 197.1 -8.9 L 197.1 -8.9 Q 193.9 -11 193.9 -13.5 L 193.9 -13.5 L 193.9 -13.5 Q 193.9 -16 195.8 -17.5 L 195.8 -17.5 L 195.8 -17.5 Q 197.6 -19 200.3 -19 L 200.3 -19 L 200.3 -19 Q 203 -19 204.6 -17.9 L 204.6 -17.9 L 204.6 -17.9 Q 203.8 -15.8 203.8 -14.4 L 203.8 -14.4 L 203.8 -14.4 Q 203.8 -10.2 207.4 -10.2 L 207.4 -10.2 L 207.4 -10.2 Q 208.9 -10.2 209.9 -11.2 L 209.9 -11.2 L 209.9 -11.2 Q 211 -12.1 211 -13.8 L 211 -13.8 L 211 -13.8 Q 211 -17 205.5 -20.5 L 205.5 -20.5 L 205.5 -20.5 Q 201 -23.4 200 -24.6 L 200 -24.6 L 200 -24.6 Q 198.2 -26.6 198.2 -29.2 L 198.2 -29.2 L 198.2 -29.2 Q 198.2 -31.8 199.4 -34.2 L 199.4 -34.2 L 199.4 -34.2 Q 200.7 -36.6 202.9 -38.4 L 202.9 -38.4 L 202.9 -38.4 Q 207.6 -41.9 215.7 -41.9 L 215.7 -41.9 L 215.7 -41.9 Q 219.9 -41.9 222.3 -40.3 L 222.3 -40.3 L 222.3 -40.3 Q 224.8 -38.6 224.8 -35.8 L 224.8 -35.8 L 224.8 -35.8 Q 224.8 -33 223.1 -31.4 L 223.1 -31.4 L 223.1 -31.4 Q 221.4 -29.8 218.3 -29.8 L 218.3 -29.8 L 218.3 -29.8 Q 216.2 -29.8 215.2 -30.5 Z M 266.3 -28.6 L 279.2 -29.8 L 279.2 -29.8 Q 274.6 -19.7 274.6 -8 L 274.6 -8 L 274.6 -8 Q 272.8 -6.7 270.3 -6.7 L 270.3 -6.7 L 270.3 -6.7 Q 267.8 -6.7 266.2 -7.9 L 266.2 -7.9 L 266.2 -7.9 Q 264.6 -9.1 264.3 -10.3 L 264.3 -10.3 L 264.3 -10.3 Q 262.7 -8.7 260.1 -7.7 L 260.1 -7.7 L 260.1 -7.7 Q 257.5 -6.7 254.7 -6.7 L 254.7 -6.7 L 254.7 -6.7 Q 252 -6.7 249.6 -7.6 L 249.6 -7.6 L 249.6 -7.6 Q 247.2 -8.5 245.3 -10.5 L 245.3 -10.5 L 245.3 -10.5 Q 241.2 -14.9 241.2 -23.1 L 241.2 -23.1 L 241.2 -23.1 Q 241.2 -35.9 248.1 -43.6 L 248.1 -43.6 L 248.1 -43.6 Q 255.1 -51.5 267.6 -51.5 L 267.6 -51.5 L 267.6 -51.5 Q 276.2 -51.5 279.3 -47.1 L 279.3 -47.1 L 279.3 -47.1 Q 280.3 -45.6 280.3 -44 L 280.3 -44 L 280.3 -44 Q 280.3 -42.3 279.5 -40.8 L 279.5 -40.8 L 279.5 -40.8 Q 278.8 -39.4 277.6 -38.2 L 277.6 -38.2 L 277.6 -38.2 Q 274.9 -35.7 271.5 -35.7 L 271.5 -35.7 L 271.5 -35.7 Q 270.2 -35.7 268.9 -36.1 L 268.9 -36.1 L 268.9 -36.1 Q 269.1 -38 269.1 -40.3 L 269.1 -40.3 L 269.1 -40.3 Q 269.1 -42.5 269 -43.5 L 269 -43.5 L 269 -43.5 Q 268.8 -44.6 268.4 -45.4 L 268.4 -45.4 L 268.4 -45.4 Q 267.6 -47.1 265.8 -47.1 L 265.8 -47.1 L 265.8 -47.1 Q 264 -47.1 261.9 -45.2 L 261.9 -45.2 L 261.9 -45.2 Q 259.9 -43.2 258.3 -40 L 258.3 -40 L 258.3 -40 Q 254.8 -32.8 254.8 -24.2 L 254.8 -24.2 L 254.8 -24.2 Q 254.8 -20.2 256.3 -17.4 L 256.3 -17.4 L 256.3 -17.4 Q 258 -14.4 260.9 -14.4 L 260.9 -14.4 L 260.9 -14.4 Q 262 -14.4 262.9 -14.9 L 262.9 -14.9 L 262.9 -14.9 Q 263.8 -15.4 264.2 -15.8 L 264.2 -15.8 L 266.3 -28.6 Z M 285.1 -9.9 L 285.1 -9.9 L 285.1 -9.9 Q 283.6 -11.6 282.9 -14.2 L 282.9 -14.2 L 282.9 -14.2 Q 282.3 -16.8 282.3 -21.1 L 282.3 -21.1 L 282.3 -21.1 Q 282.3 -25.4 283.7 -29.3 L 283.7 -29.3 L 283.7 -29.3 Q 285.2 -33.2 287.9 -36 L 287.9 -36 L 287.9 -36 Q 293.4 -41.9 302.5 -41.9 L 302.5 -41.9 L 302.5 -41.9 Q 305.7 -41.9 308.1 -40.8 L 308.1 -40.8 L 319.1 -41.9 L 314.3 -17 L 314.3 -17 Q 314.1 -16.2 314.1 -14.8 L 314.1 -14.8 L 314.1 -14.8 Q 314.1 -13.4 315 -12.5 L 315 -12.5 L 315 -12.5 Q 315.9 -11.6 317.1 -11.5 L 317.1 -11.5 L 317.1 -11.5 Q 316.5 -9.3 314.2 -8 L 314.2 -8 L 314.2 -8 Q 311.8 -6.7 309.2 -6.7 L 309.2 -6.7 L 309.2 -6.7 Q 306.6 -6.7 304.8 -7.7 L 304.8 -7.7 L 304.8 -7.7 Q 303.1 -8.7 302.5 -10.4 L 302.5 -10.4 L 302.5 -10.4 Q 301.5 -8.8 299.3 -7.8 L 299.3 -7.8 L 299.3 -7.8 Q 297.2 -6.7 294.3 -6.7 L 294.3 -6.7 L 294.3 -6.7 Q 291.3 -6.7 289 -7.5 L 289 -7.5 L 289 -7.5 Q 286.6 -8.3 285.1 -9.9 Z M 298.6 -35.9 L 298.6 -35.9 L 298.6 -35.9 Q 297.9 -34.8 297.2 -32.8 L 297.2 -32.8 L 297.2 -32.8 Q 296.6 -30.9 295.5 -25.6 L 295.5 -25.6 L 295.5 -25.6 Q 294.5 -20.4 294.5 -16.7 L 294.5 -16.7 L 294.5 -16.7 Q 294.5 -13 295.1 -11.9 L 295.1 -11.9 L 295.1 -11.9 Q 295.6 -10.8 296.7 -10.8 L 296.7 -10.8 L 296.7 -10.8 Q 298.7 -10.8 300.2 -12.8 L 300.2 -12.8 L 300.2 -12.8 Q 301.7 -14.7 302.3 -18.2 L 302.3 -18.2 L 305.7 -36.9 L 305.7 -36.9 Q 304.3 -38.1 302.8 -38.1 L 302.8 -38.1 L 302.8 -38.1 Q 301.2 -38.1 300.3 -37.6 L 300.3 -37.6 L 300.3 -37.6 Q 299.3 -37.1 298.6 -35.9 Z M 337.8 -11.5 L 337.8 -11.5 L 337.8 -11.5 Q 335.8 -6.7 329.5 -6.7 L 329.5 -6.7 L 329.5 -6.7 Q 326.3 -6.7 324.2 -9 L 324.2 -9 L 324.2 -9 Q 322.6 -10.8 322.6 -12.9 L 322.6 -12.9 L 322.6 -12.9 Q 322.6 -17.7 324.8 -28.2 L 324.8 -28.2 L 329.5 -52.8 L 342.5 -54.1 L 336.3 -21.7 L 336.3 -21.7 Q 335.2 -17 335.2 -15.3 L 335.2 -15.3 L 335.2 -15.3 Q 335.2 -11.7 337.8 -11.5 Z M 358.5 -11.5 L 358.5 -11.5 L 358.5 -11.5 Q 356.6 -6.7 350.2 -6.7 L 350.2 -6.7 L 350.2 -6.7 Q 347 -6.7 345 -9 L 345 -9 L 345 -9 Q 343.3 -10.8 343.3 -12.9 L 343.3 -12.9 L 343.3 -12.9 Q 343.3 -17.7 345.6 -28.2 L 345.6 -28.2 L 350.2 -52.8 L 363.2 -54.1 L 357 -21.7 L 357 -21.7 Q 355.9 -17 355.9 -15.3 L 355.9 -15.3 L 355.9 -15.3 Q 355.9 -11.7 358.5 -11.5 Z M 389.9 -18.8 L 389.9 -18.8 L 389.9 -18.8 Q 391.5 -17.7 391.5 -15.3 L 391.5 -15.3 L 391.5 -15.3 Q 391.5 -12.9 390.3 -11.4 L 390.3 -11.4 L 390.3 -11.4 Q 389.1 -9.9 387.1 -8.8 L 387.1 -8.8 L 387.1 -8.8 Q 383 -6.7 378.6 -6.7 L 378.6 -6.7 L 378.6 -6.7 Q 374.2 -6.7 371.6 -7.7 L 371.6 -7.7 L 371.6 -7.7 Q 369 -8.7 367.2 -10.4 L 367.2 -10.4 L 367.2 -10.4 Q 363.9 -13.8 363.9 -20 L 363.9 -20 L 363.9 -20 Q 363.9 -29.7 369.1 -35.6 L 369.1 -35.6 L 369.1 -35.6 Q 374.7 -41.9 384.5 -41.9 L 384.5 -41.9 L 384.5 -41.9 Q 390.6 -41.9 393.6 -39.4 L 393.6 -39.4 L 393.6 -39.4 Q 395.9 -37.5 395.9 -34.3 L 395.9 -34.3 L 395.9 -34.3 Q 395.9 -23.1 376.4 -23.1 L 376.4 -23.1 L 376.4 -23.1 Q 376.1 -21.4 376.1 -20 L 376.1 -20 L 376.1 -20 Q 376.1 -17 377.5 -15.9 L 377.5 -15.9 L 377.5 -15.9 Q 378.8 -14.8 381.2 -14.8 L 381.2 -14.8 L 381.2 -14.8 Q 383.6 -14.8 386.2 -15.9 L 386.2 -15.9 L 386.2 -15.9 Q 388.8 -17 389.9 -18.8 Z M 376.8 -25.8 L 376.8 -25.8 L 376.8 -25.8 Q 381.4 -25.8 384 -28.6 L 384 -28.6 L 384 -28.6 Q 386.6 -31.3 386.6 -35.6 L 386.6 -35.6 L 386.6 -35.6 Q 386.6 -37.1 386.1 -37.9 L 386.1 -37.9 L 386.1 -37.9 Q 385.6 -38.7 384.5 -38.7 L 384.5 -38.7 L 384.5 -38.7 Q 383.4 -38.7 382.4 -38.3 L 382.4 -38.3 L 382.4 -38.3 Q 381.5 -37.8 380.6 -36.4 L 380.6 -36.4 L 380.6 -36.4 Q 378.2 -33.2 376.8 -25.8 Z M 418.1 -26 L 418.1 -26 L 418.1 -26 Q 420.4 -30.1 420.4 -34.3 L 420.4 -34.3 L 420.4 -34.3 Q 420.4 -37 418.4 -37 L 418.4 -37 L 418.4 -37 Q 416.8 -37 415.2 -34.4 L 415.2 -34.4 L 415.2 -34.4 Q 413.6 -31.8 413.1 -28.4 L 413.1 -28.4 L 409.7 -8 L 396.5 -6.7 L 403 -40.7 L 413.6 -41.9 L 412.4 -35.5 L 412.4 -35.5 Q 415.6 -41.9 422.6 -41.9 L 422.6 -41.9 L 422.6 -41.9 Q 426.3 -41.9 428.3 -40 L 428.3 -40 L 428.3 -40 Q 430.4 -38.1 430.4 -34.2 L 430.4 -34.2 L 430.4 -34.2 Q 430.4 -30.2 427.8 -27.7 L 427.8 -27.7 L 427.8 -27.7 Q 425.2 -25.2 420.8 -25.2 L 420.8 -25.2 L 420.8 -25.2 Q 418.8 -25.2 418.1 -26 Z M 451.7 -15.2 L 451.7 -15.2 L 451.7 -15.2 Q 448.4 -11.8 442.3 -11.8 L 442.3 -11.8 L 442.3 -11.8 Q 434.7 -11.8 433.1 -17.4 L 433.1 -17.4 L 433.1 -17.4 Q 432.6 -19 432.6 -20.9 L 432.6 -20.9 L 432.6 -20.9 Q 432.6 -22.7 433 -24.7 L 433 -24.7 L 436 -40.7 L 449 -41.9 L 445.5 -23.3 L 445.5 -23.3 Q 445.3 -22.5 445.1 -21.6 L 445.1 -21.6 L 445.1 -21.6 Q 444.9 -20.7 444.9 -19.8 L 444.9 -19.8 L 444.9 -19.8 Q 444.9 -18.8 445.3 -18.2 L 445.3 -18.2 L 445.3 -18.2 Q 445.6 -17.6 446 -17.2 L 446 -17.2 L 446 -17.2 Q 446.8 -16.7 448.2 -16.7 L 448.2 -16.7 L 448.2 -16.7 Q 449.6 -16.7 450.7 -18.4 L 450.7 -18.4 L 450.7 -18.4 Q 451.9 -20 452.5 -22.9 L 452.5 -22.9 L 456 -40.7 L 468.6 -41.9 L 463.8 -16.8 L 463.8 -16.8 Q 461.5 -4.5 456.6 0.4 L 456.6 0.4 L 456.6 0.4 Q 454.1 2.9 450.9 3.9 L 450.9 3.9 L 450.9 3.9 Q 447.6 4.8 443.5 4.8 L 443.5 4.8 L 443.5 4.8 Q 436.8 4.8 432.9 2.7 L 432.9 2.7 L 432.9 2.7 Q 429.1 0.6 429.1 -2.9 L 429.1 -2.9 L 429.1 -2.9 Q 429.1 -5.5 431.1 -7 L 431.1 -7 L 431.1 -7 Q 433 -8.5 436.1 -8.5 L 436.1 -8.5 L 436.1 -8.5 Q 438.8 -8.5 440.8 -7.4 L 440.8 -7.4 L 440.8 -7.4 Q 442.1 -6.7 442.6 -5.8 L 442.6 -5.8 L 442.6 -5.8 Q 441.2 -4.5 441.2 -2.4 L 441.2 -2.4 L 441.2 -2.4 Q 441.2 0.4 443.7 0.4 L 443.7 0.4 L 443.7 0.4 Q 448 0.4 450.4 -9.3 L 450.4 -9.3 L 450.4 -9.3 Q 451.1 -12.2 451.7 -15.2 Z" fill="#774023"></path></g></g><style>text {
  font-size: 64px;
  font-family: Arial Black;
  dominant-baseline: central;
  text-anchor: middle;
}</style></svg>